<svg width="24" height="24" viewBox="0 0 24 24" fill="none" xmlns="http://www.w3.org/2000/svg">
  <rect width="24" height="24" rx="5" fill="#E0F7FA"/>
  <path d="M12 2C10.8954 2 10 2.89543 10 4V12C10 15.3137 12.6863 18 16 18C19.3137 18 22 15.3137 22 12V4C22 2.89543 21.1046 2 20 2H12Z" fill="#FF8A65"/>
  <circle cx="16" cy="12" r="4" fill="white"/>
  <path d="M6 21C7.65685 21 9 19.6569 9 18C9 16.3431 7.65685 15 6 15C4.34315 15 3 16.3431 3 18C3 19.6569 4.34315 21 6 21Z" fill="#4FC3F7"/>
  <rect x="5" y="10" width="2" height="5" fill="#4FC3F7"/>
</svg>
